<?xml version="1.0" standalone="no"?><svg xmlns="http://www.w3.org/2000/svg" viewBox="0 0 1440 320"><path fill="#0086C5" fill-opacity="1" d="M0,160L30,181.3C60,203,120,245,180,261.3C240,277,300,267,360,224C420,181,480,107,540,101.3C600,96,660,160,720,197.3C780,235,840,245,900,234.7C960,224,1020,192,1080,165.3C1140,139,1200,117,1260,112C1320,107,1380,117,1410,122.7L1440,128L1440,320L1410,320C1380,320,1320,320,1260,320C1200,320,1140,320,1080,320C1020,320,960,320,900,320C840,320,780,320,720,320C660,320,600,320,540,320C480,320,420,320,360,320C300,320,240,320,180,320C120,320,60,320,30,320L0,320Z"></path></svg>